<?xml version="1.0" encoding="utf-8"?><svg version="1.1" id="Layer_1" xmlns="http://www.w3.org/2000/svg" xmlns:xlink="http://www.w3.org/1999/xlink" x="0px" y="0px" viewBox="0 0 122.88 98.92" style="enable-background:new 0 0 122.88 98.92" xml:space="preserve"><style type="text/css"><![CDATA[
	.st0{fill-rule:evenodd;clip-rule:evenodd;}
]]></style><g><path class="st0" d="M114.44,32.13c-1.5,0.61-3.01,0.92-4.51,0.97c-2.09,0.07-4.19-0.37-6.29-1.22c-1.43-0.73-2.74-1.72-3.84-2.91 c-0.97-1.05-1.79-2.25-2.43-3.57c-0.64,1.32-1.46,2.52-2.43,3.57c-2.45,2.65-5.83,4.28-9.55,4.28c-3.71,0-7.1-1.65-9.55-4.28 c-0.97-1.05-1.79-2.25-2.43-3.57c-0.64,1.32-1.47,2.52-2.43,3.57c-2.45,2.65-5.83,4.28-9.55,4.28c-3.72,0-7.1-1.65-9.55-4.28 c-0.97-1.05-1.79-2.25-2.43-3.57c-0.64,1.32-1.47,2.52-2.43,3.57c-2.45,2.65-5.83,4.28-9.55,4.28c-3.72,0-7.1-1.65-9.55-4.28 c-0.97-1.05-1.79-2.25-2.43-3.57c-0.63,1.32-1.46,2.52-2.43,3.57c-1.61,1.74-3.62,3.05-5.88,3.74c-2.79,0.61-5.27,0.47-7.48-0.21 c-0.42-0.13-0.83-0.28-1.23-0.44V70.7c0,1.58,1.3,2.88,2.88,2.88h100.23c1.58,0,2.88-1.3,2.88-2.88V32.13L114.44,32.13z M4.19,29.2 c-0.07-0.07-0.15-0.15-0.22-0.23C1.51,26.32,0,22.67,0,18.65v-5.67v-0.08V12.9c0-0.28,0.06-0.57,0.19-0.82L10.82,0.85 C11.1,0.31,11.63,0,12.17,0h97.7c0.62,0,1.14,0.38,1.39,0.94l11.4,11.09c0.14,0.24,0.21,0.51,0.22,0.78l0,0 c0.01,0.05,0.01,0.11,0.01,0.17v5.67c0,4.01-1.52,7.67-3.97,10.31c-0.07,0.08-0.15,0.15-0.22,0.23v53.56 c0,1.79-1.46,3.26-3.26,3.26H76.22c0.17,4.96,2.31,9.41,7.88,12.92h-45.3c4.5-3.26,7.77-7.18,7.88-12.92H7.45 c-1.79,0-3.26-1.46-3.26-3.26V29.2L4.19,29.2z M44.45,39.97c-0.65,0-1.2-0.55-1.2-1.23c0-0.65,0.55-1.2,1.2-1.2h1.66 c0.03,0,0.09,0,0.12,0c1.11,0.03,2.1,0.25,2.93,0.77c0.92,0.59,1.6,1.48,1.97,2.8c0,0.03,0,0.06,0.03,0.09l0.31,1.23h26.67h0.29 c0.68,0,1.2,0.55,1.2,1.2c0,0.12-0.03,0.25-0.06,0.37l-3.14,11.94c-0.12,0.55-0.62,0.92-1.17,0.92l0,0H55.54 c0.43,1.6,0.86,2.46,1.45,2.87c0.71,0.46,1.94,0.49,4.01,0.46h0.03l0,0h13.93c0.68,0,1.2,0.55,1.2,1.2c0,0.68-0.55,1.2-1.2,1.2 H61.03l0,0c-2.56,0.03-4.13-0.03-5.39-0.86c-1.29-0.86-1.97-2.34-2.65-5.02l0,0l-4.13-14.91c0-0.03,0-0.03-0.03-0.06 c-0.18-0.68-0.49-1.14-0.92-1.39c-0.43-0.28-1.02-0.4-1.69-0.4c-0.03,0-0.06,0-0.09,0L44.45,39.97L44.45,39.97L44.45,39.97 L44.45,39.97z M68.24,50.07c0-0.38,0.38-0.69,0.84-0.69s0.84,0.31,0.84,0.69v1.44c0,0.38-0.38,0.69-0.84,0.69s-0.84-0.31-0.84-0.69 V50.07L68.24,50.07L68.24,50.07z M63.22,50.07c0-0.38,0.38-0.69,0.84-0.69c0.46,0,0.84,0.31,0.84,0.69v1.44 c0,0.38-0.38,0.69-0.84,0.69c-0.46,0-0.84-0.31-0.84-0.69V50.07L63.22,50.07L63.22,50.07z M58.2,50.07c0-0.38,0.38-0.69,0.84-0.69 s0.84,0.31,0.84,0.69v1.44c0,0.38-0.38,0.69-0.84,0.69s-0.84-0.31-0.84-0.69V50.07L58.2,50.07L58.2,50.07z M52.15,44.83 L52.15,44.83l2.74,9.6h19.44l2.56-9.6C68.65,44.83,60.4,44.83,52.15,44.83L52.15,44.83z M71.35,64.02c1.63,0,2.96,1.32,2.96,2.96 s-1.32,2.96-2.96,2.96c-1.63,0-2.96-1.32-2.96-2.96S69.72,64.02,71.35,64.02L71.35,64.02L71.35,64.02L71.35,64.02z M58.38,64.02 c1.63,0,2.96,1.32,2.96,2.96s-1.32,2.96-2.96,2.96s-2.96-1.32-2.96-2.96S56.74,64.02,58.38,64.02L58.38,64.02L58.38,64.02 L58.38,64.02z M5.44,11.32h18.84l3.7-7.99H13.06L5.44,11.32L5.44,11.32z M73.26,3.33l1.54,7.99h20.57l-4.21-7.99H73.26L73.26,3.33 L73.26,3.33z M71.71,11.32l-1.54-7.99H52.65l-1.51,7.99H71.71L71.71,11.32L71.71,11.32z M48.06,11.32l1.51-7.99H31.14l-3.71,7.99 H48.06L48.06,11.32L48.06,11.32z M94.34,3.33l4.21,7.99h18.78l-8.34-7.99H94.34L94.34,3.33L94.34,3.33z M98.92,14.64v4 c0,3.1,1.17,5.92,3.07,7.96c1.89,2.04,4.5,3.31,7.37,3.31s5.48-1.26,7.37-3.31c1.89-2.04,3.07-4.86,3.07-7.96v-4H98.92L98.92,14.64 L98.92,14.64z M74.95,14.64v4c0,3.1,1.17,5.92,3.07,7.96c1.89,2.04,4.5,3.31,7.37,3.31c2.87,0,5.48-1.26,7.37-3.31 c1.89-2.04,3.07-4.86,3.07-7.96v-4H74.95L74.95,14.64L74.95,14.64z M51,14.64v4c0,3.1,1.17,5.92,3.07,7.96 c1.89,2.04,4.5,3.31,7.37,3.31s5.48-1.26,7.37-3.31c1.89-2.04,3.07-4.86,3.07-7.96v-4H51L51,14.64L51,14.64z M27.04,14.64v4 c0,3.1,1.17,5.92,3.07,7.96c1.89,2.04,4.5,3.31,7.37,3.31c2.87,0,5.48-1.26,7.37-3.31c1.89-2.04,3.07-4.86,3.07-7.96v-4H27.04 L27.04,14.64L27.04,14.64z M23.96,14.64H3.08v4c0,3.1,1.17,5.92,3.07,7.96c1.89,2.04,4.5,3.31,7.37,3.31 c2.87,0,5.48-1.26,7.37-3.31c1.89-2.04,3.07-4.86,3.07-7.96V14.64L23.96,14.64L23.96,14.64z"/></g></svg>